<?xml version="1.0" encoding="utf-8" standalone="no"?>
<!DOCTYPE svg PUBLIC "-//W3C//DTD SVG 1.1//EN"
  "http://www.w3.org/Graphics/SVG/1.1/DTD/svg11.dtd">
<svg xmlns:xlink="http://www.w3.org/1999/xlink" width="72pt" height="72pt" viewBox="0 0 72 72" xmlns="http://www.w3.org/2000/svg" version="1.1">
 <metadata>
  <rdf:RDF xmlns:dc="http://purl.org/dc/elements/1.1/" xmlns:cc="http://creativecommons.org/ns#" xmlns:rdf="http://www.w3.org/1999/02/22-rdf-syntax-ns#">
   <cc:Work>
    <dc:type rdf:resource="http://purl.org/dc/dcmitype/StillImage"/>
    <dc:date>2024-02-12T17:50:01.467877</dc:date>
    <dc:format>image/svg+xml</dc:format>
    <dc:creator>
     <cc:Agent>
      <dc:title>Matplotlib v3.7.1, https://matplotlib.org/</dc:title>
     </cc:Agent>
    </dc:creator>
   </cc:Work>
  </rdf:RDF>
 </metadata>
 <defs>
  <style type="text/css">*{stroke-linejoin: round; stroke-linecap: butt}</style>
 </defs>
 <g id="figure_1">
  <g id="patch_1">
   <path d="M 0 72 
L 72 72 
L 72 0 
L 0 0 
z
" style="fill: #333333"/>
  </g>
  <g id="axes_1">
   <g id="line2d_1">
    <path d="M -1 39.409279 
L -0.765 42.227792 
L 0.63 49.975607 
L 2.025 51.773112 
L 3.42 35.734512 
L 4.815 43.205988 
L 6.21 39.905858 
L 7.605 43.106503 
L 9 48.873375 
L 10.395 39.45123 
L 11.79 54.310758 
L 13.185 50.682945 
L 14.58 44.342089 
L 15.975 49.352714 
L 17.37 43.325274 
L 18.765 49.586848 
L 20.16 45.831834 
L 21.555 60.525367 
L 22.95 55.030067 
L 24.345 52.207368 
L 25.74 55.654661 
L 27.135 50.339867 
L 28.53 51.671299 
L 29.925 45.574595 
L 31.32 35.121416 
L 32.715 39.571587 
L 34.11 37.459222 
L 35.505 39.322865 
L 36.9 36.065514 
L 38.295 18.354109 
L 39.69 23.532161 
L 41.085 22.923821 
L 42.48 31.968816 
L 43.875 17.541793 
L 45.27 30.025096 
L 46.665 24.159403 
L 48.06 9.169495 
L 49.455 17.224862 
L 50.85 19.198131 
L 52.245 16.414135 
L 53.64 13.149103 
L 55.035 15.469782 
L 56.43 29.423663 
L 57.825 35.272368 
L 59.22 29.901609 
L 60.615 32.567958 
L 62.01 35.596069 
L 63.405 20.005372 
L 64.8 23.478257 
L 66.195 38.777975 
L 67.59 32.666777 
L 68.985 40.825064 
L 70.38 30.449597 
L 71.775 43.168773 
L 73 48.796443 
" clip-path="url(#p13c0160dd3)" style="fill: none; stroke: #dcdcdc; stroke-width: 1.5; stroke-linecap: square"/>
   </g>
   <g id="line2d_2">
    <path d="M -1 36.59498 
L -0.765 36.614029 
L 0.63 38.778403 
L 2.025 41.083629 
L 3.42 41.407112 
L 4.815 42.582135 
L 6.21 45.100768 
L 7.605 45.312198 
L 9 45.249908 
L 10.395 44.405125 
L 11.79 45.790358 
L 13.185 46.052943 
L 14.58 48.114894 
L 15.975 49.30725 
L 17.37 49.640649 
L 18.765 51.260992 
L 20.16 50.863903 
L 21.555 50.962739 
L 22.95 51.085989 
L 24.345 49.66286 
L 25.74 49.287491 
L 27.135 48.074728 
L 28.53 47.423831 
L 29.925 44.977846 
L 31.32 41.31025 
L 32.715 38.44273 
L 34.11 35.169646 
L 35.505 33.332541 
L 36.9 29.91959 
L 38.295 28.36464 
L 39.69 27.268439 
L 41.085 24.22823 
L 42.48 22.204794 
L 43.875 20.19232 
L 45.27 18.227182 
L 46.665 17.706682 
L 48.06 16.900444 
L 49.455 17.550428 
L 50.85 17.880783 
L 52.245 19.116765 
L 53.64 19.371051 
L 55.035 20.514718 
L 56.43 21.598305 
L 57.825 22.223645 
L 59.22 24.181629 
L 60.615 25.806894 
L 62.01 28.57449 
L 63.405 30.072471 
L 64.8 31.446982 
L 66.195 32.877488 
L 67.59 35.056392 
L 68.985 36.374108 
L 70.38 38.23472 
L 71.775 41.006622 
L 73 42.566361 
" clip-path="url(#p13c0160dd3)" style="fill: none; stroke: #6895d2; stroke-width: 3; stroke-linecap: square"/>
   </g>
   <g id="line2d_3">
    <path d="M -1 72.165182 
L -0.765 71.903237 
L 0.63 70.348287 
L 2.025 68.793337 
L 3.42 67.238387 
L 4.815 65.683437 
L 6.21 64.128487 
L 7.605 62.573537 
L 9 61.018587 
L 10.395 59.463638 
L 11.79 57.908688 
L 13.185 56.353738 
L 14.58 54.798788 
L 15.975 53.243838 
L 17.37 51.688888 
L 18.765 50.133938 
L 20.16 48.578988 
L 21.555 47.024039 
L 22.95 45.469089 
L 24.345 43.914139 
L 25.74 42.359189 
L 27.135 40.804239 
L 28.53 39.249289 
L 29.925 37.694339 
L 31.32 36.139389 
L 32.715 34.58444 
L 34.11 33.02949 
L 35.505 31.47454 
L 36.9 29.91959 
L 38.295 28.36464 
L 39.69 26.80969 
L 41.085 25.25474 
L 42.48 23.69979 
L 43.875 22.144841 
L 45.27 20.589891 
L 46.665 19.034941 
L 48.06 17.479991 
L 49.455 15.925041 
L 50.85 14.370091 
L 52.245 12.815141 
L 53.64 11.260191 
L 55.035 9.705242 
L 56.43 8.150292 
L 57.825 6.595342 
L 59.22 5.040392 
L 60.615 3.485442 
L 62.01 1.930492 
L 63.405 0.375542 
L 64.639047 -1 
" clip-path="url(#p13c0160dd3)" style="fill: none; stroke: #f3b95f; stroke-width: 2; stroke-linecap: square"/>
   </g>
   <g id="PathCollection_1">
    <defs>
     <path id="m7d6d47ef4a" d="M 0 3.535534 
C 0.937635 3.535534 1.836992 3.163008 2.5 2.5 
C 3.163008 1.836992 3.535534 0.937635 3.535534 0 
C 3.535534 -0.937635 3.163008 -1.836992 2.5 -2.5 
C 1.836992 -3.163008 0.937635 -3.535534 0 -3.535534 
C -0.937635 -3.535534 -1.836992 -3.163008 -2.5 -2.5 
C -3.163008 -1.836992 -3.535534 -0.937635 -3.535534 0 
C -3.535534 0.937635 -3.163008 1.836992 -2.5 2.5 
C -1.836992 3.163008 -0.937635 3.535534 0 3.535534 
z
" style="stroke: #d04848"/>
    </defs>
    <g clip-path="url(#p13c0160dd3)">
     <use xlink:href="#m7d6d47ef4a" x="38.295" y="28.36464" style="fill: #d04848; stroke: #d04848"/>
    </g>
   </g>
  </g>
 </g>
 <defs>
  <clipPath id="p13c0160dd3">
   <rect x="9" y="8.64" width="55.8" height="55.44"/>
  </clipPath>
 </defs>
</svg>
